<svg width="292" height="54" viewBox="0 0 292 54" version="1.1" xmlns="http://www.w3.org/2000/svg" xmlns:xlink="http://www.w3.org/1999/xlink">
<title>Group 3</title>
<desc>Created using Figma</desc>
<g id="Canvas" transform="matrix(2 0 0 2 1830 -9368)">
<g id="Group 3">
<g id="Vector">
<g id="Vector">
<use xlink:href="#path0_fill" transform="translate(-915 4684)" fill="#31C057"/>
<use xlink:href="#path1_fill" transform="translate(-915 4684)" fill="#31C057"/>
<use xlink:href="#path2_fill" transform="translate(-915 4684)" fill="#31C057"/>
<use xlink:href="#path3_fill" transform="translate(-915 4684)" fill="#31C057"/>
<use xlink:href="#path4_fill" transform="translate(-915 4684)" fill="#31C057"/>
</g>
</g>
<g id="BikeSpace">
<use xlink:href="#path5_fill" transform="translate(-878 4679)" fill="#31C057"/>
</g>
</g>
</g>
<defs>
<path id="path0_fill" d="M 12.7906 18.737C 9.86457 21.6712 5.12057 21.6712 2.19451 18.737C -0.731503 15.8028 -0.731503 11.0456 2.19451 8.11144C 5.12057 5.17727 9.86457 5.17727 12.7906 8.11144C 13.5111 8.83396 14.0542 9.66702 14.4199 10.5562L 13.2458 11.7335C 12.9729 10.7965 12.4679 9.91296 11.731 9.17399C 9.39021 6.82665 5.59494 6.82665 3.25414 9.17399C 0.913307 11.5213 0.913307 15.3271 3.25414 17.6745C 5.59494 20.0218 9.39021 20.0218 11.731 17.6745L 12.7906 18.737Z"/>
<path id="path1_fill" d="M 21.2094 8.17381L 22.269 9.23636C 24.6098 6.88902 28.405 6.88902 30.7458 9.23636C 33.0867 11.5837 33.0867 15.3895 30.7458 17.7368C 28.405 20.0842 24.6098 20.0842 22.269 17.7368C 21.532 16.9979 21.0271 16.1143 20.7542 15.1773L 19.5801 16.3546C 19.9458 17.2438 20.4888 18.0769 21.2094 18.7994C 24.1354 21.7335 28.8794 21.7335 31.8055 18.7994C 34.7315 15.8652 34.7315 11.108 31.8055 8.17381C 28.8794 5.23964 24.1354 5.23964 21.2094 8.17381Z"/>
<path id="path2_fill" d="M 11.6951 17.9742C 11.6219 17.9009 11.6219 17.782 11.6951 17.7086L 21.1881 8.1892C 21.2612 8.11584 21.3798 8.11584 21.453 8.1892L 22.2476 8.986C 22.3207 9.05935 22.3207 9.17828 22.2476 9.25164L 12.7546 18.771C 12.6814 18.8444 12.5628 18.8444 12.4896 18.771L 11.6951 17.9742Z"/>
<path id="path3_fill" d="M 12.5683 0L 13.9389 0.607627L 8.18241 13.664L 6.81187 13.0564L 12.5683 0Z"/>
<path id="path4_fill" d="M 12.6309 0L 16.7518 0L 16.7518 1.50268L 12.6309 1.50268L 12.6309 0Z"/>
<path id="path5_fill" d="M 2.57406 8.86719L 7.41391 8.86719C 9.68734 8.86719 11.3319 9.20703 12.3475 9.88672C 13.3631 10.5664 13.8709 11.6406 13.8709 13.1094C 13.8709 14.125 13.5858 14.9648 13.0155 15.6289C 12.453 16.2852 11.6288 16.7109 10.5428 16.9062L 10.5428 17.0234C 13.1444 17.4688 14.4452 18.8359 14.4452 21.125C 14.4452 22.6562 13.9256 23.8516 12.8866 24.7109C 11.8553 25.5703 10.41 26 8.55062 26L 2.57406 26L 2.57406 8.86719ZM 4.56625 16.2031L 7.8475 16.2031C 9.25375 16.2031 10.2655 15.9844 10.8827 15.5469C 11.4998 15.1016 11.8084 14.3555 11.8084 13.3086C 11.8084 12.3477 11.4647 11.6562 10.7772 11.2344C 10.0897 10.8047 8.99594 10.5898 7.49594 10.5898L 4.56625 10.5898L 4.56625 16.2031ZM 4.56625 17.8906L 4.56625 24.3008L 8.14047 24.3008C 9.52328 24.3008 10.5623 24.0352 11.2577 23.5039C 11.9608 22.9648 12.3123 22.125 12.3123 20.9844C 12.3123 19.9219 11.953 19.1406 11.2342 18.6406C 10.5233 18.1406 9.43734 17.8906 7.97641 17.8906L 4.56625 17.8906ZM 19.3089 26L 17.3636 26L 17.3636 13.1562L 19.3089 13.1562L 19.3089 26ZM 17.1995 9.67578C 17.1995 9.23047 17.3089 8.90625 17.5277 8.70312C 17.7464 8.49219 18.0198 8.38672 18.348 8.38672C 18.6605 8.38672 18.93 8.49219 19.1566 8.70312C 19.3831 8.91406 19.4964 9.23828 19.4964 9.67578C 19.4964 10.1133 19.3831 10.4414 19.1566 10.6602C 18.93 10.8711 18.6605 10.9766 18.348 10.9766C 18.0198 10.9766 17.7464 10.8711 17.5277 10.6602C 17.3089 10.4414 17.1995 10.1133 17.1995 9.67578ZM 24.8758 19.4258C 25.2117 18.9492 25.7234 18.3242 26.4109 17.5508L 30.5594 13.1562L 32.868 13.1562L 27.6648 18.6289L 33.2313 26L 30.8758 26L 26.3406 19.9297L 24.8758 21.1953L 24.8758 26L 22.9539 26L 22.9539 7.76562L 24.8758 7.76562L 24.8758 17.4336C 24.8758 17.8633 24.8445 18.5273 24.782 19.4258L 24.8758 19.4258ZM 40.5091 26.2344C 38.6106 26.2344 37.1106 25.6562 36.0091 24.5C 34.9153 23.3437 34.3684 21.7383 34.3684 19.6836C 34.3684 17.6133 34.8763 15.9688 35.8919 14.75C 36.9153 13.5312 38.2864 12.9219 40.0052 12.9219C 41.6145 12.9219 42.888 13.4531 43.8255 14.5156C 44.763 15.5703 45.2317 16.9648 45.2317 18.6992L 45.2317 19.9297L 36.3841 19.9297C 36.4231 21.4375 36.802 22.582 37.5208 23.3633C 38.2473 24.1445 39.2669 24.5352 40.5794 24.5352C 41.9622 24.5352 43.3294 24.2461 44.6809 23.668L 44.6809 25.4023C 43.9934 25.6992 43.3411 25.9102 42.7239 26.0352C 42.1145 26.168 41.3763 26.2344 40.5091 26.2344ZM 39.9817 14.5508C 38.9505 14.5508 38.1263 14.8867 37.5091 15.5586C 36.8997 16.2305 36.5403 17.1602 36.4309 18.3477L 43.1458 18.3477C 43.1458 17.1211 42.8723 16.1836 42.3255 15.5352C 41.7786 14.8789 40.9973 14.5508 39.9817 14.5508ZM 58.0408 21.4414C 58.0408 22.9492 57.4939 24.125 56.4002 24.9688C 55.3064 25.8125 53.822 26.2344 51.947 26.2344C 49.9158 26.2344 48.3533 25.9727 47.2595 25.4492L 47.2595 23.5273C 47.9627 23.8242 48.7283 24.0586 49.5564 24.2305C 50.3845 24.4023 51.2048 24.4883 52.0173 24.4883C 53.3455 24.4883 54.3455 24.2383 55.0173 23.7383C 55.6892 23.2305 56.0252 22.5273 56.0252 21.6289C 56.0252 21.0352 55.9041 20.5508 55.6619 20.1758C 55.4275 19.793 55.0291 19.4414 54.4666 19.1211C 53.9119 18.8008 53.0642 18.4375 51.9236 18.0312C 50.3298 17.4609 49.1892 16.7852 48.5017 16.0039C 47.822 15.2227 47.4822 14.2031 47.4822 12.9453C 47.4822 11.625 47.9783 10.5742 48.9705 9.79297C 49.9627 9.01172 51.2752 8.62109 52.908 8.62109C 54.6111 8.62109 56.1775 8.93359 57.6072 9.55859L 56.9861 11.293C 55.572 10.6992 54.197 10.4023 52.8611 10.4023C 51.8064 10.4023 50.9822 10.6289 50.3884 11.082C 49.7947 11.5352 49.4978 12.1641 49.4978 12.9688C 49.4978 13.5625 49.6072 14.0508 49.8259 14.4336C 50.0447 14.8086 50.4119 15.1563 50.9275 15.4766C 51.4509 15.7891 52.2478 16.1367 53.3181 16.5195C 55.115 17.1602 56.3494 17.8477 57.0213 18.582C 57.7009 19.3164 58.0408 20.2695 58.0408 21.4414ZM 66.7483 26.2344C 65.9123 26.2344 65.1467 26.082 64.4514 25.7773C 63.7639 25.4648 63.1858 24.9883 62.717 24.3477L 62.5764 24.3477C 62.6702 25.0977 62.717 25.8086 62.717 26.4805L 62.717 31.7656L 60.7717 31.7656L 60.7717 13.1562L 62.3538 13.1562L 62.6233 14.9141L 62.717 14.9141C 63.217 14.2109 63.7991 13.7031 64.4631 13.3906C 65.1272 13.0781 65.8889 12.9219 66.7483 12.9219C 68.4514 12.9219 69.7639 13.5039 70.6858 14.668C 71.6155 15.832 72.0803 17.4648 72.0803 19.5664C 72.0803 21.6758 71.6077 23.3164 70.6623 24.4883C 69.7248 25.6523 68.4202 26.2344 66.7483 26.2344ZM 66.467 14.5742C 65.1545 14.5742 64.2053 14.9375 63.6194 15.6641C 63.0334 16.3906 62.7327 17.5469 62.717 19.1328L 62.717 19.5664C 62.717 21.3711 63.0178 22.6641 63.6194 23.4453C 64.2209 24.2188 65.1858 24.6055 66.5139 24.6055C 67.6233 24.6055 68.4905 24.1563 69.1155 23.2578C 69.7483 22.3594 70.0647 21.1211 70.0647 19.543C 70.0647 17.9414 69.7483 16.7148 69.1155 15.8633C 68.4905 15.0039 67.6077 14.5742 66.467 14.5742ZM 82.9089 26L 82.5222 24.1719L 82.4284 24.1719C 81.7878 24.9766 81.1472 25.5234 80.5066 25.8125C 79.8737 26.0938 79.0808 26.2344 78.1277 26.2344C 76.8542 26.2344 75.8542 25.9062 75.1277 25.25C 74.4089 24.5938 74.0495 23.6602 74.0495 22.4492C 74.0495 19.8555 76.1237 18.4961 80.2722 18.3711L 82.4519 18.3008L 82.4519 17.5039C 82.4519 16.4961 82.2331 15.7539 81.7956 15.2773C 81.3659 14.793 80.6745 14.5508 79.7214 14.5508C 78.6511 14.5508 77.4402 14.8789 76.0886 15.5352L 75.4909 14.0469C 76.1237 13.7031 76.8152 13.4336 77.5652 13.2383C 78.323 13.043 79.0808 12.9453 79.8386 12.9453C 81.3698 12.9453 82.5027 13.2852 83.237 13.9648C 83.9792 14.6445 84.3503 15.7344 84.3503 17.2344L 84.3503 26L 82.9089 26ZM 78.5144 24.6289C 79.7253 24.6289 80.6745 24.2969 81.362 23.6328C 82.0573 22.9688 82.405 22.0391 82.405 20.8438L 82.405 19.6836L 80.4597 19.7656C 78.9128 19.8203 77.7956 20.0625 77.1081 20.4922C 76.4284 20.9141 76.0886 21.5742 76.0886 22.4727C 76.0886 23.1758 76.2995 23.7109 76.7214 24.0781C 77.1511 24.4453 77.7487 24.6289 78.5144 24.6289ZM 93.0227 26.2344C 91.1633 26.2344 89.7219 25.6641 88.6984 24.5234C 87.6828 23.375 87.175 21.7539 87.175 19.6602C 87.175 17.5117 87.6906 15.8516 88.7219 14.6797C 89.7609 13.5078 91.2375 12.9219 93.1516 12.9219C 93.7688 12.9219 94.3859 12.9883 95.0031 13.1211C 95.6203 13.2539 96.1047 13.4102 96.4563 13.5898L 95.8586 15.2422C 95.4289 15.0703 94.9602 14.9297 94.4523 14.8203C 93.9445 14.7031 93.4953 14.6445 93.1047 14.6445C 90.4953 14.6445 89.1906 16.3086 89.1906 19.6367C 89.1906 21.2148 89.507 22.4258 90.1398 23.2695C 90.7805 24.1133 91.7258 24.5352 92.9758 24.5352C 94.0461 24.5352 95.1438 24.3047 96.2688 23.8438L 96.2688 25.5664C 95.4094 26.0117 94.3273 26.2344 93.0227 26.2344ZM 104.273 26.2344C 102.375 26.2344 100.875 25.6562 99.7731 24.5C 98.6794 23.3437 98.1325 21.7383 98.1325 19.6836C 98.1325 17.6133 98.6403 15.9688 99.6559 14.75C 100.679 13.5312 102.05 12.9219 103.769 12.9219C 105.379 12.9219 106.652 13.4531 107.59 14.5156C 108.527 15.5703 108.996 16.9648 108.996 18.6992L 108.996 19.9297L 100.148 19.9297C 100.187 21.4375 100.566 22.582 101.285 23.3633C 102.011 24.1445 103.031 24.5352 104.343 24.5352C 105.726 24.5352 107.093 24.2461 108.445 23.668L 108.445 25.4023C 107.758 25.6992 107.105 25.9102 106.488 26.0352C 105.879 26.168 105.14 26.2344 104.273 26.2344ZM 103.746 14.5508C 102.715 14.5508 101.89 14.8867 101.273 15.5586C 100.664 16.2305 100.304 17.1602 100.195 18.3477L 106.91 18.3477C 106.91 17.1211 106.636 16.1836 106.09 15.5352C 105.543 14.8789 104.761 14.5508 103.746 14.5508Z"/>
</defs>
</svg>
