<svg width="27" height="27" viewBox="0 0 27 27" version="1.1" xmlns="http://www.w3.org/2000/svg" xmlns:xlink="http://www.w3.org/1999/xlink">
<title>Check</title>
<desc>Created using Figma</desc>
<g id="Canvas" transform="translate(-3707 -2558)">
<g id="Check">
<g id="Checkbox">
<use xlink:href="#path0_fill" transform="translate(3707.5 2558.81)" fill="#31C057"/>
<mask id="mask0_outline_ins">
<use xlink:href="#path0_fill" fill="white" transform="translate(3707.5 2558.81)"/>
</mask>
<g mask="url(#mask0_outline_ins)">
<use xlink:href="#path1_stroke_2x" transform="translate(3707.5 2558.81)" fill="#31C057"/>
</g>
</g>
<g id="Vector">
<use xlink:href="#path2_fill" transform="translate(3712.53 2564.85)" fill="#FFFFFF"/>
</g>
</g>
</g>
<defs>
<path id="path0_fill" fill-rule="evenodd" d="M 0 13.0864C 0 5.85899 5.85899 0 13.0864 0C 20.3139 0 26.1729 5.85899 26.1729 13.0864L 26.1729 13.0924C 26.1729 20.3199 20.3139 26.1789 13.0864 26.1789C 5.85899 26.1789 0 20.3199 0 13.0924L 0 13.0864Z"/>
<path id="path1_stroke_2x" d="M 23.9433 13.0864L 23.9433 13.0924L 28.4024 13.0924L 28.4024 13.0864L 23.9433 13.0864ZM 2.22954 13.0924L 2.22954 13.0864L -2.22954 13.0864L -2.22954 13.0924L 2.22954 13.0924ZM 13.0864 23.9493C 7.09034 23.9493 2.22954 19.0885 2.22954 13.0924L -2.22954 13.0924C -2.22954 21.5512 4.62765 28.4084 13.0864 28.4084L 13.0864 23.9493ZM 23.9433 13.0924C 23.9433 19.0885 19.0825 23.9493 13.0864 23.9493L 13.0864 28.4084C 21.5452 28.4084 28.4024 21.5512 28.4024 13.0924L 23.9433 13.0924ZM 13.0864 2.22954C 19.0825 2.22954 23.9433 7.09034 23.9433 13.0864L 28.4024 13.0864C 28.4024 4.62765 21.5452 -2.22954 13.0864 -2.22954L 13.0864 2.22954ZM 13.0864 -2.22954C 4.62765 -2.22954 -2.22954 4.62765 -2.22954 13.0864L 2.22954 13.0864C 2.22954 7.09034 7.09034 2.22954 13.0864 2.22954L 13.0864 -2.22954Z"/>
<path id="path2_fill" d="M 15.733 2.46212C 15.9464 2.19156 16.1064 1.86688 16.1064 1.48809C 16.1064 0.64935 15.4397 -1.03211e-07 14.6397 -1.03211e-07C 14.1064 -1.03211e-07 13.6264 0.297619 13.3598 0.757575L 6.47988 10.4978L 2.53329 6.57467C 2.53329 6.54761 2.50662 6.54761 2.47995 6.52056C 2.21329 6.27705 1.86663 6.11471 1.46664 6.11471C 0.639988 6.11471 -8.13787e-07 6.79112 -8.13787e-07 7.60281C -8.13787e-07 7.98159 0.133331 8.30627 0.34666 8.57683C 0.426659 8.658 0.506658 8.73917 0.586656 8.82034L 5.3599 13.3928C 5.6799 13.7175 6.05322 14.0963 6.61321 14.0963C 7.1732 14.0963 7.4932 13.8799 7.89319 13.3387L 15.733 2.46212Z"/>
</defs>
</svg>
