<svg width="24" height="22" viewBox="0 0 24 22" version="1.1" xmlns="http://www.w3.org/2000/svg" xmlns:xlink="http://www.w3.org/1999/xlink">
<title>upload click</title>
<desc>Created using Figma</desc>
<g id="Canvas" transform="translate(-1036 -991)">
<g id="upload click">
<g id="upload - anticon">
<use xlink:href="#path0_fill" transform="translate(1036 991)" fill="#39393A"/>
</g>
</g>
</g>
<defs>
<path id="path0_fill" fill-rule="evenodd" d="M 11.3839 0.267857C 11.5625 0.0892848 11.7768 0 12.0268 0C 12.2768 0 12.4911 0.0892848 12.6696 0.267857L 16.8482 4.44643C 17.0268 4.625 17.1161 4.84375 17.1161 5.10268C 17.1161 5.36161 17.0268 5.58036 16.8482 5.75893C 16.6696 5.9375 16.4554 6.02679 16.2054 6.02679C 15.9554 6.02679 15.7321 5.9375 15.5357 5.75893L 12.9643 3.16071L 12.9643 14.6429C 12.9643 14.8929 12.8705 15.1071 12.683 15.2857C 12.4955 15.4643 12.2768 15.5536 12.0268 15.5536C 11.7768 15.5536 11.558 15.4643 11.3705 15.2857C 11.183 15.1071 11.0893 14.8929 11.0893 14.6429L 11.0893 3.16071L 8.49107 5.75893C 8.3125 5.9375 8.09822 6.02679 7.84821 6.02679C 7.59821 6.02679 7.38393 5.9375 7.20536 5.75893C 7.02678 5.58036 6.9375 5.36161 6.9375 5.10268C 6.9375 4.84375 7.02678 4.625 7.20536 4.44643L 11.3839 0.267857ZM 23.7321 13.7098C 23.9107 13.8973 24 14.1161 24 14.3661L 24 20.3393C 24 20.7857 23.8393 21.1741 23.5179 21.5045C 23.1964 21.8348 22.8036 22 22.3393 22L 1.66071 22C 1.19643 22 0.803573 21.8393 0.482143 21.5179C 0.160713 21.1964 0 20.8036 0 20.3393L 0 14.3661C 0 14.1161 0.0892848 13.8973 0.267857 13.7098C 0.446429 13.5223 0.665177 13.4286 0.924107 13.4286C 1.18304 13.4286 1.40178 13.5223 1.58036 13.7098C 1.75893 13.8973 1.84821 14.1161 1.84821 14.3661L 1.84821 19.5893C 1.84821 19.75 1.90179 19.8839 2.00893 19.9911C 2.11607 20.0982 2.25 20.1518 2.41071 20.1518L 21.5893 20.1518C 21.75 20.1518 21.8839 20.0982 21.9911 19.9911C 22.0982 19.8839 22.1518 19.75 22.1518 19.5893L 22.1518 14.3661C 22.1518 14.1161 22.2411 13.8973 22.4196 13.7098C 22.5982 13.5223 22.817 13.4286 23.0759 13.4286C 23.3348 13.4286 23.5536 13.5223 23.7321 13.7098Z"/>
</defs>
</svg>
