<svg width="244" height="244" viewBox="0 0 244 244" version="1.1" xmlns="http://www.w3.org/2000/svg" xmlns:xlink="http://www.w3.org/1999/xlink">
<title>Logo</title>
<desc>Created using Figma</desc>
<g id="Canvas" transform="matrix(2 0 0 2 -1056 -6700)">
<g id="Logo">
<g id="transparent line">
<g id="Subtract">
<use xlink:href="#path0_fill" transform="translate(528 3350)" fill="#31C057"/>
</g>
<g id="Ellipse">
<use xlink:href="#path1_fill" transform="translate(537.705 3359.7)" fill="#31C057"/>
</g>
</g>
<g id="Group">
<g id="Subtract">
<use xlink:href="#path2_fill" transform="matrix(0.707107 -0.707107 0.707107 0.707107 540.477 3413.99)" fill="#FFFFFF"/>
</g>
<g id="Subtract">
<use xlink:href="#path3_fill" transform="matrix(-0.707107 0.707107 -0.707107 -0.707107 639.672 3414.14)" fill="#FFFFFF"/>
</g>
<g id="Rectangle 4.2">
<use xlink:href="#path4_fill" transform="matrix(0.707107 -0.707107 0.707107 0.707107 576.66 3424.86)" fill="#FFFFFF"/>
</g>
<g id="Rectangle 2">
<use xlink:href="#path5_fill" transform="matrix(0.914599 0.404361 -0.404361 0.914599 579.141 3380.96)" fill="#FFFFFF"/>
</g>
<g id="Rectangle 3">
<use xlink:href="#path6_fill" transform="matrix(1 0 0 1 579.295 3380.96)" fill="#FFFFFF"/>
</g>
</g>
</g>
</g>
<defs>
<path id="path0_fill" fill-rule="evenodd" d="M 61 122C 94.6894 122 122 94.6895 122 61C 122 27.3105 94.6894 0 61 0C 27.3106 0 0 27.3105 0 61C 0 94.6895 27.3106 122 61 122ZM 61 115.992C 91.3715 115.992 115.992 91.3716 115.992 61C 115.992 30.6284 91.3715 6.00757 61 6.00757C 30.6285 6.00757 6.00757 30.6284 6.00757 61C 6.00757 91.3716 30.6285 115.992 61 115.992Z"/>
<path id="path1_fill" d="M 102.591 51.2955C 102.591 79.6251 79.6251 102.591 51.2955 102.591C 22.9658 102.591 0 79.6251 0 51.2955C 0 22.9658 22.9658 0 51.2955 0C 79.6251 0 102.591 22.9658 102.591 51.2955Z"/>
<path id="path2_fill" fill-rule="evenodd" d="M 18.4848 36.9698C 8.27597 36.9697 3.23688e-05 28.6938 4.21995e-11 18.4849C -2.15791e-05 8.27603 8.27603 -2.15791e-05 18.4849 4.21995e-11C 28.6938 3.23688e-05 36.9697 8.27597 36.9698 18.4848C 36.9697 20.9987 36.4679 23.3954 35.559 25.5801L 31.4627 25.58C 32.6167 23.4737 33.2727 21.0561 33.2727 18.4849C 33.2728 10.3177 26.652 3.69697 18.4848 3.69705C 10.3178 3.69697 3.69697 10.3178 3.69705 18.4848C 3.69697 26.652 10.3177 33.2728 18.4849 33.2727L 18.4848 36.9698Z"/>
<path id="path3_fill" fill-rule="evenodd" d="M 18.4848 36.9698L 18.4849 33.2727C 10.3177 33.2728 3.69698 26.6521 3.69706 18.4848C 3.69698 10.3178 10.3178 3.69698 18.4848 3.69706C 26.6521 3.69698 33.2728 10.3177 33.2727 18.4849C 33.2727 21.0561 32.6167 23.4737 31.4627 25.58L 35.559 25.5801C 36.4679 23.3954 36.9697 20.9987 36.9698 18.4848C 36.9697 8.27597 28.6938 2.15792e-05 18.4849 0C 8.27605 0 0 8.27605 0 18.4849C 2.15792e-05 28.6938 8.27597 36.9697 18.4848 36.9698Z"/>
<path id="path4_fill" d="M 0 1C 0 0.447715 0.447715 0 1 0L 33.0453 0C 33.5975 0 34.0453 0.447715 34.0453 1L 34.0453 2.69657C 34.0453 3.24885 33.5975 3.69657 33.0453 3.69657L 0.999999 3.69657C 0.447714 3.69657 0 3.24885 0 2.69657L 0 1Z"/>
<path id="path5_fill" d="M 0 0L 3.69697 0L 3.69697 35.1212L 0 35.1212L 0 0Z"/>
<path id="path6_fill" d="M 0 0L 10.1667 0L 10.1667 3.69697L 0 3.69697L 0 0Z"/>
</defs>
</svg>
