<svg width="26" height="21" viewBox="0 0 26 21" version="1.1" xmlns="http://www.w3.org/2000/svg" xmlns:xlink="http://www.w3.org/1999/xlink">
<title>camera click</title>
<desc>Created using Figma</desc>
<g id="Canvas" transform="translate(-1035 -931)">
<g id="camera click">
<g id="camera - simple-line-icons">
<use xlink:href="#path0_fill" transform="translate(1035 931.5)" fill="#39393A"/>
</g>
</g>
</g>
<defs>
<path id="path0_fill" fill-rule="evenodd" d="M 23.5625 3.11111C 24.375 3.11111 24.9844 3.40277 25.3906 3.98611C 25.7969 4.56945 26 5.05555 26 5.44444L 26 17.9132C 26 18.5289 25.7334 19.0677 25.2002 19.5295C 24.667 19.9913 24.138 20.2222 23.6133 20.2222L 2.25977 20.2222C 1.73502 20.2222 1.22722 19.9954 0.736328 19.5417C 0.24544 19.088 0 18.537 0 17.8889L 0 5.42014C 0 4.65856 0.304684 4.08334 0.914062 3.69444C 1.52344 3.30555 2.03125 3.11111 2.4375 3.11111L 5.02603 3.11111C 5.73476 3.11111 6.39056 2.73603 6.7499 2.12516L 7.42002 0.985955C 7.77936 0.37508 8.43516 0 9.14389 0L 16.7697 0C 17.4575 0 18.0971 0.353457 18.4631 0.935843L 19.242 2.17527C 19.608 2.75765 20.2475 3.11111 20.9354 3.11111L 23.5625 3.11111ZM 24.375 17.9132L 24.375 5.44443C 24.375 5.41202 24.3115 5.27429 24.1846 5.03124C 24.0576 4.78818 23.8503 4.66665 23.5625 4.66665L 19.7973 4.66665C 19.2501 4.66665 18.7427 4.38097 18.459 3.91318L 18.459 3.91318L 17.5972 2.50923C 17.2334 1.91666 16.588 1.55554 15.8927 1.55554L 10.1444 1.55554C 9.45652 1.55554 8.81694 1.909 8.45096 2.49139L 7.67209 3.73081C 7.3061 4.3132 6.66653 4.66665 5.97869 4.66665L 2.4375 4.66665C 2.36979 4.66665 2.21745 4.73147 1.98047 4.8611C 1.74349 4.99073 1.625 5.17707 1.625 5.42013L 1.625 17.8889C 1.625 18.0995 1.70963 18.2818 1.87891 18.4357C 2.04818 18.5897 2.18359 18.6667 2.28516 18.6667L 23.6133 18.6667C 23.7318 18.6504 23.8883 18.5573 24.083 18.3871C 24.2777 18.217 24.375 18.059 24.375 17.9132ZM 13 15C 14.1 15 15.0417 14.6083 15.825 13.825C 16.6083 13.0417 17 12.1 17 11C 17 9.89999 16.6083 8.95834 15.825 8.175C 15.0417 7.39166 14.1 7 13 7C 11.9 7 10.9583 7.39166 10.175 8.175C 9.39166 8.95834 9 9.89999 9 11C 9 12.1 9.39166 13.0417 10.175 13.825C 10.9583 14.6083 11.9 15 13 15ZM 13 16.5C 14.5125 16.5 15.8073 15.9615 16.8844 14.8844C 17.9615 13.8073 18.5 12.5125 18.5 11C 18.5 9.48749 17.9615 8.19271 16.8844 7.11562C 15.8073 6.03854 14.5125 5.5 13 5.5C 11.4875 5.5 10.1927 6.03854 9.11562 7.11562C 8.03854 8.19271 7.5 9.48749 7.5 11C 7.5 12.5125 8.03854 13.8073 9.11562 14.8844C 10.1927 15.9615 11.4875 16.5 13 16.5Z"/>
</defs>
</svg>
