<svg width="28" height="28" viewBox="0 0 28 28" version="1.1" xmlns="http://www.w3.org/2000/svg" xmlns:xlink="http://www.w3.org/1999/xlink">
<title>checkoff</title>
<desc>Created using Figma</desc>
<g id="Canvas" transform="translate(-46 -471)">
<g id="checkoff">
<g id="Checkbox">
<use xlink:href="#path0_fill" transform="translate(46 471)" fill="#31C057"/>
<mask id="mask0_outline_ins">
<use xlink:href="#path0_fill" fill="white" transform="translate(46 471)"/>
</mask>
<g mask="url(#mask0_outline_ins)">
<use xlink:href="#path1_stroke_2x" transform="translate(46 471)" fill="#31C057"/>
</g>
</g>
<g id="Vector">
<use xlink:href="#path2_fill" transform="translate(51.3846 477.462)" fill="#FFFFFF"/>
</g>
</g>
</g>
<defs>
<path id="path0_fill" fill-rule="evenodd" d="M 0 14C 0 6.26801 6.26801 0 14 0L 14 0C 21.732 0 28 6.26801 28 14L 28 14C 28 21.732 21.732 28 14 28L 14 28C 6.26801 28 0 21.732 0 14L 0 14Z"/>
<path id="path1_stroke_2x" d="M 14 26C 7.37258 26 2 20.6274 2 14L -2 14C -2 22.8366 5.16344 30 14 30L 14 26ZM 26 14C 26 20.6274 20.6274 26 14 26L 14 30C 22.8366 30 30 22.8366 30 14L 26 14ZM 14 2C 20.6274 2 26 7.37258 26 14L 30 14C 30 5.16345 22.8366 -2 14 -2L 14 2ZM 14 -2C 5.16344 -2 -2 5.16345 -2 14L 2 14C 2 7.37258 7.37258 2 14 2L 14 -2Z"/>
<path id="path2_fill" d="M 16.8314 2.6334C 17.0596 2.34401 17.2308 1.99675 17.2308 1.59161C 17.2308 0.694522 16.5176 -1.10391e-07 15.6617 -1.10391e-07C 15.0912 -1.10391e-07 14.5777 0.318323 14.2924 0.810276L 6.93225 11.2281L 2.71014 7.03204C 2.71014 7.0031 2.68161 7.0031 2.65308 6.97416C 2.3678 6.71372 1.99694 6.54009 1.56903 6.54009C 0.684666 6.54009 -8.70598e-07 7.26355 -8.70598e-07 8.1317C -8.70598e-07 8.53684 0.142639 8.8841 0.370861 9.17348C 0.456444 9.2603 0.542028 9.34711 0.627611 9.43393L 5.73408 14.3245C 6.07641 14.6718 6.4758 15.0769 7.07489 15.0769C 7.67397 15.0769 8.0163 14.8454 8.44422 14.2666L 16.8314 2.6334Z"/>
</defs>
</svg>
