<svg width="28" height="28" viewBox="0 0 28 28" version="1.1" xmlns="http://www.w3.org/2000/svg" xmlns:xlink="http://www.w3.org/1999/xlink">
<title>checkoff</title>
<desc>Created using Figma</desc>
<g id="Canvas" transform="translate(-46 -471)">
<g id="checkoff">
<g id="Checkbox">
<mask id="mask0_outline_ins">
<use xlink:href="#path0_fill" fill="white" transform="translate(46 471)"/>
</mask>
<g mask="url(#mask0_outline_ins)">
<use xlink:href="#path1_stroke_2x" transform="translate(46 471)" fill="#CCCCCC"/>
</g>
</g>
</g>
</g>
<defs>
<path id="path0_fill" fill-rule="evenodd" d="M 0 14C 0 6.26801 6.26801 0 14 0L 14 0C 21.732 0 28 6.26801 28 14L 28 14C 28 21.732 21.732 28 14 28L 14 28C 6.26801 28 0 21.732 0 14L 0 14Z"/>
<path id="path1_stroke_2x" d="M 14 26C 7.37258 26 2 20.6274 2 14L -2 14C -2 22.8366 5.16344 30 14 30L 14 26ZM 26 14C 26 20.6274 20.6274 26 14 26L 14 30C 22.8366 30 30 22.8366 30 14L 26 14ZM 14 2C 20.6274 2 26 7.37258 26 14L 30 14C 30 5.16345 22.8366 -2 14 -2L 14 2ZM 14 -2C 5.16344 -2 -2 5.16345 -2 14L 2 14C 2 7.37258 7.37258 2 14 2L 14 -2Z"/>
</defs>
</svg>
