<svg width="43" height="43" viewBox="0 0 43 43" version="1.1" xmlns="http://www.w3.org/2000/svg" xmlns:xlink="http://www.w3.org/1999/xlink">
<title>Group</title>
<desc>Created using Figma</desc>
<g id="Canvas" transform="translate(861 -4017)">
<g id="Group">
<g id="Ellipse">
<mask id="mask0_outline_ins">
<use xlink:href="#path0_fill" fill="white" transform="translate(-861 4017)"/>
</mask>
<g mask="url(#mask0_outline_ins)">
<use xlink:href="#path1_stroke_2x" transform="translate(-861 4017)" fill="#FFFFFF"/>
</g>
</g>
<g>
<g id="Vector">
<use xlink:href="#path2_fill" transform="translate(-850.406 4028.84)" fill="#FFFFFF"/>
</g>
</g>
</g>
</g>
<defs>
<path id="path0_fill" d="M 43 21.5C 43 33.3741 33.3741 43 21.5 43C 9.62588 43 0 33.3741 0 21.5C 0 9.62588 9.62588 0 21.5 0C 33.3741 0 43 9.62588 43 21.5Z"/>
<path id="path1_stroke_2x" d="M 38 21.5C 38 30.6127 30.6127 38 21.5 38L 21.5 48C 36.1355 48 48 36.1355 48 21.5L 38 21.5ZM 21.5 38C 12.3873 38 5 30.6127 5 21.5L -5 21.5C -5 36.1355 6.86445 48 21.5 48L 21.5 38ZM 5 21.5C 5 12.3873 12.3873 5 21.5 5L 21.5 -5C 6.86445 -5 -5 6.86445 -5 21.5L 5 21.5ZM 21.5 5C 30.6127 5 38 12.3873 38 21.5L 48 21.5C 48 6.86445 36.1355 -5 21.5 -5L 21.5 5Z"/>
<path id="path2_fill" d="M 21.9148 3.37431C 22.2119 3.00351 22.4348 2.55854 22.4348 2.03942C 22.4348 0.889927 21.5062 -1.4145e-07 20.3919 -1.4145e-07C 19.649 -1.4145e-07 18.9804 0.407884 18.609 1.03825L 9.02591 14.3872L 3.52865 9.01052C 3.52865 8.97344 3.49151 8.97344 3.45436 8.93636C 3.08293 8.60263 2.60006 8.38015 2.0429 8.38015C 0.891447 8.38015 -1.13354e-06 9.30716 -1.13354e-06 10.4196C -1.13354e-06 10.9387 0.185718 11.3837 0.482868 11.7545C 0.594299 11.8657 0.70573 11.9769 0.817161 12.0882L 7.46588 18.3548C 7.9116 18.7997 8.43161 19.3188 9.21163 19.3188C 9.99165 19.3188 10.4374 19.0222 10.9945 18.2806L 21.9148 3.37431Z"/>
</defs>
</svg>
